Coordinates
version=1
nRows=38
nColumns=12
inDegrees=yes

Units are S.I. units (second, meters, Newtons, ...)
Angles are in degrees

endheader
time	SC_y	SC_z	SC_x	AC_y	AC_z	AC_x	GH_y	GH_z	GH_yy	EL_x	PS_y
       0.0              -47.01          34.22          66.99          45.72         -4.453          -19.0          34.77          69.87          -68.9           36.6          125.8
   0.04377              -47.01          34.22          66.98          45.72         -4.454          -19.0          34.76          69.86         -68.87           36.6          125.8
   0.08754               -47.0          34.22          66.98          45.73         -4.454         -18.99          34.75          69.86         -68.83           36.6          125.8
    0.1313               -47.0          34.21          66.97          45.73         -4.454         -18.99          34.74          69.85          -68.8           36.6          125.8
    0.1751               -47.0          34.21          66.97          45.73         -4.454         -18.99          34.73          69.85         -68.76          36.59          125.8
    0.2189               -47.0           34.2          66.96          45.74         -4.454         -18.98          34.72          69.84         -68.72          36.59          125.8
    0.2626              -46.99           34.2          66.96          45.74         -4.454         -18.98          34.71          69.84         -68.68          36.59          125.8
    0.3064              -46.99           34.2          66.95          45.74         -4.454         -18.97          34.69          69.83         -68.63          36.59          125.8
    0.3502              -46.99          34.19          66.94          45.75         -4.454         -18.97          34.68          69.83         -68.58          36.58          125.7
    0.3939              -46.98          34.18          66.94          45.75         -4.454         -18.96          34.66          69.82         -68.52          36.58          125.7
    0.4377              -46.98          34.18          66.93          45.75         -4.455         -18.95          34.65          69.81         -68.47          36.58          125.7
    0.4815              -46.98          34.17          66.92          45.76         -4.455         -18.95          34.63           69.8          -68.4          36.57          125.7
    0.5252              -46.97          34.17          66.91          45.76         -4.455         -18.94          34.61          69.79         -68.34          36.57          125.7
     0.569              -46.97          34.16           66.9          45.77         -4.455         -18.93          34.59          69.78         -68.27          36.56          125.7
    0.6128              -46.96          34.15          66.89          45.77         -4.455         -18.93          34.56          69.77         -68.19          36.56          125.6
    0.6566              -46.96          34.14          66.88          45.78         -4.456         -18.92          34.54          69.76          -68.1          36.55          125.6
    0.7003              -46.95          34.13          66.87          45.79         -4.456         -18.91          34.51          69.75         -68.01          36.55          125.6
    0.7441              -46.95          34.12          66.85          45.79         -4.456          -18.9          34.48          69.74         -67.91          36.54          125.6
    0.7879              -46.94          34.11          66.84           45.8         -4.456         -18.88          34.45          69.72          -67.8          36.53          125.5
    0.8316              -46.93           34.1          66.82          45.81         -4.457         -18.87          34.42          69.71         -67.68          36.52          125.5
    0.8754              -46.92          34.09           66.8          45.82         -4.457         -18.86          34.38          69.69         -67.55          36.52          125.4
    0.9192              -46.91          34.07          66.78          45.83         -4.458         -18.84          34.34          69.67          -67.4          36.51          125.4
    0.9629               -46.9          34.05          66.76          45.84         -4.458         -18.83          34.29          69.65         -67.24           36.5          125.4
     1.007              -46.89          34.04          66.74          45.85         -4.458         -18.81          34.24          69.62         -67.06          36.48          125.3
      1.05              -46.88          34.02          66.71          45.87         -4.459         -18.79          34.18           69.6         -66.87          36.47          125.3
     1.094              -46.87          33.99          66.68          45.88          -4.46         -18.76          34.12          69.57         -66.65          36.46          125.2
     1.138              -46.85          33.97          66.65           45.9          -4.46         -18.74          34.04          69.54          -66.4          36.44          125.1
     1.182              -46.83          33.94          66.61          45.92         -4.461         -18.71          33.96           69.5         -66.12          36.42          125.0
     1.226              -46.81          33.91          66.57          45.94         -4.462         -18.68          33.87          69.46         -65.81           36.4          125.0
     1.269              -46.79          33.87          66.52          45.97         -4.463         -18.64          33.77          69.41         -65.45          36.38          124.9
     1.313              -46.77          33.83          66.46          45.99         -4.464          -18.6          33.65          69.35         -65.04          36.35          124.7
     1.357              -46.74          33.78           66.4          46.03         -4.465         -18.55          33.52          69.29         -64.58          36.32          124.6
     1.401               -46.7          33.73          66.33          46.06         -4.467         -18.49          33.36          69.22         -64.04          36.29          124.4
     1.444              -46.67          33.66          66.24          46.11         -4.468         -18.42          33.18          69.14         -63.41          36.24          124.3
     1.488              -46.62          33.59          66.14          46.16         -4.471         -18.35          32.97          69.04         -62.68           36.2          124.1
     1.532              -46.57           33.5          66.03          46.22         -4.473         -18.26          32.71          68.92         -61.81          36.14          123.8
     1.576               -46.5           33.4          65.89          46.29         -4.476         -18.15          32.42          68.79         -60.79          36.07          123.5
     1.619              -46.43          33.27          65.72          46.38         -4.479         -18.02          32.06          68.62         -59.56          35.99          123.2
